<svg width="48" height="48" viewBox="0 0 24 24" fill="none" xmlns="http://www.w3.org/2000/svg">
  <path d="M7 2C7.55228 2 8 2.44772 8 3V11C8 11.5523 7.55228 12 7 12H5V22C5 22.5523 4.55228 23 4 23C3.44772 23 3 22.5523 3 22V12H1C0.447715 12 0 11.5523 0 11V3C0 2.44772 0.447715 2 1 2H7ZM17 2C17.5523 2 18 2.44772 18 3V11C18 11.5523 17.5523 12 17 12H15V22C15 22.5523 14.5523 23 14 23C13.4477 23 13 22.5523 13 22V12H11C10.4477 12 10 11.5523 10 11V3C10 2.44772 10.4477 2 11 2H17ZM22.2929 4.70711L19.2929 7.70711C18.9024 8.09763 18.9024 8.7308 19.2929 9.12132C19.6834 9.51184 20.3166 9.51184 20.7071 9.12132L23.7071 6.12132C24.0976 5.7308 24.0976 5.09763 23.7071 4.70711C23.3166 4.31658 22.6834 4.31658 22.2929 4.70711ZM20.1213 11.2929L18.7071 9.87868C18.3166 9.48816 17.6834 9.48816 17.2929 9.87868C16.9024 10.2692 16.9024 10.9024 17.2929 11.2929L18.7071 12.7071C19.0976 13.0976 19.7308 13.0976 20.1213 12.7071C20.5118 12.3166 20.5118 11.6834 20.1213 11.2929ZM18 6C18 6.55228 18.4477 7 19 7H23C23.5523 7 24 6.55228 24 6C24 5.44772 23.5523 5 23 5H19C18.4477 5 18 5.44772 18 6Z" fill="#000"/>
</svg>
